<svg xmlns="http://www.w3.org/2000/svg" viewBox="0 0 762.525 635.64">
  <defs>
    <style>
      .cls-1 {
        fill: #ccd7f3;
      }

      .cls-2 {
        fill: #ececf0;
      }

      .cls-3 {
        fill: #adc3f4;
      }

      .cls-4 {
        fill: #33479d;
      }

      .cls-5 {
        fill: #f7f7e0;
      }

      .cls-6 {
        fill: #7b88d0;
      }

      .cls-7 {
        fill: #fd4d0a;
      }

      .cls-8 {
        fill: #656fcb;
      }

      .cls-9 {
        fill: #877ef0;
      }

      .cls-10 {
        fill: #e4eae6;
      }

      .cls-11 {
        fill: #cdb299;
      }

      .cls-12 {
        fill: #bea38d;
      }

      .cls-13 {
        fill: #92806d;
      }

      .cls-14 {
        fill: #cac8b4;
      }

      .cls-15 {
        fill: #cc3b30;
      }

      .cls-16 {
        fill: #95806d;
      }

      .cls-17 {
        fill: #f6f7e0;
      }

      .cls-18 {
        fill: #cdb098;
      }

      .cls-19 {
        fill: #ad9680;
      }

      .cls-20 {
        fill: #e0e3cd;
      }
    </style>
  </defs>
  <g id="Asset_1" data-name="Asset 1" transform="translate(-322.973 -137)">
    <g id="OBJECTS" transform="translate(322.973 137)">
      <ellipse id="Ellipse_1" data-name="Ellipse 1" class="cls-1" cx="338.047" cy="29.4" rx="338.047" ry="29.4" transform="translate(37.896 576.841)"/>
      <path id="Path_1" data-name="Path 1" class="cls-2" d="M134.841,136.93c2.789,1.966,3.36,6.132,8.551,7.207-5.208,1.26-5.93,5.292-8.4,7.627-.1-.5-.2-.991-.286-1.478l-.588-1.126h.118a5.544,5.544,0,0,0-4.721-4.25c-.1-.437-.185-.874-.286-1.31a6.569,6.569,0,0,0,5.7-6.72Z" transform="translate(87.921 93.076)"/>
      <path id="Path_2" data-name="Path 2" class="cls-2" d="M232.586,27.245c-3.914,1.277-5.158,4.2-6.552,7.342a8.669,8.669,0,0,0-5.544-7.258,9.425,9.425,0,0,0,5.527-7.879C227.26,23.331,228.974,25.868,232.586,27.245Z" transform="translate(149.977 13.225)"/>
      <path id="Path_3" data-name="Path 3" class="cls-2" d="M168.394,78.266c.353-.722,1.21-1.462-.084-2.117,1.9-1.378,2.839-3.36,3.528-6.619,1.226,3.78,2.738,6.334,6.586,7.594-3.679,1.529-5.41,3.8-6.35,8.215C171.149,81.861,170.208,79.761,168.394,78.266Z" transform="translate(114.495 47.279)"/>
      <path id="Path_4" data-name="Path 4" class="cls-2" d="M169.814,251.243c.958,4.368,4,6.72,8.8,8.5-6.1,1.814-8.5,6.233-10.08,11.861a15.808,15.808,0,0,0-1.882-6.115c-1.058-2.436-3.36-3.192-5.561-4.066a2.218,2.218,0,0,1-1.445-2.083c0-1.68,1.26-.4,1.9-.622,4.687-1.579,6.065-5.578,6.989-10.4Z" transform="translate(108.606 168.854)"/>
      <path id="Path_5" data-name="Path 5" class="cls-2" d="M203.329,117.008c-5.527,1.277-7.174,5.746-8.551,10.567-1.126-2.554-1.075-5.477-3.36-7.308l-1.361-1.512a3.881,3.881,0,0,0-2.974-1.68l-2.47-.806.134-.235-.218-.151,2.554-.756a5.258,5.258,0,0,0,3.7-2.2c.336-.42.655-.857.974-1.294v.1l1.058-1.848h-.1a3.8,3.8,0,0,0,1.159-3.058l.857-1.8c1.277,2.3,1.142,5.359,3.814,6.72h0C198.759,115.06,203.178,113.951,203.329,117.008Z" transform="translate(125.524 71.419)"/>
      <path id="Path_6" data-name="Path 6" class="cls-2" d="M274.659,77.789a17.98,17.98,0,0,0-1.378,2.218,28.334,28.334,0,0,0-1.008,3.142c-1.68-3.562-2.083-7.308-5.594-8.938a1.8,1.8,0,0,0-1.814-.773h0c.874-.874-3.662-.6-.386-2.117s5.662-3.814,5.863-7.728a1.26,1.26,0,0,0,.907-1.579c.571,0,1.31-.134,1.445.622.991,5.04,4.721,7.644,8.9,9.794a16.615,16.615,0,0,0-6.938,5.359Z" transform="translate(179.068 42.162)"/>
      <path id="Path_7" data-name="Path 7" class="cls-2" d="M151.01,224.7a1.512,1.512,0,0,1-1.26-1.529c5.561-.655,7.274-4.906,8.887-10.416,1.68,5.611,4.133,9.643,10.382,10.92-5.746,1.932-8.786,5.04-9.576,10.08-1.109.84-1.109.84-1.848-1.277A9.072,9.072,0,0,0,151.01,224.7Z" transform="translate(101.874 144.674)"/>
      <path id="Path_8" data-name="Path 8" class="cls-2" d="M274.868,163.115c-4.486,1.411-5.477,5.426-6.989,9.626-2.654-4.234-3.058-10.248-9.979-10.483,6.048-1.8,8.8-5.746,9.761-12.4,1.764,6.065,3.83,10.55,9.66,11.491Z" transform="translate(175.415 101.903)"/>
      <path id="Path_9" data-name="Path 9" class="cls-2" d="M193.982,197.983l-1.68,4.032c-1.109-5.342-3.226-9.542-9.492-11.206,3.007-1.26,5.46-2.083,6.72-4.435,1.8-1.68,1.966-4.183,2.94-6.8,1.378,5.242,3.814,9.206,9.458,11.1C198.048,192.422,195.124,194.32,193.982,197.983Z" transform="translate(124.355 122.105)"/>
      <path id="Path_10" data-name="Path 10" class="cls-2" d="M226.93,175.155c-4.133,1.781-6.031,4.318-7.291,8.854-1.193-4.4-2.671-7.274-7.358-8.686a10.08,10.08,0,0,0,7.308-7.963,10.87,10.87,0,0,0,7.342,7.8Z" transform="translate(144.394 113.802)"/>
      <path id="Path_11" data-name="Path 11" class="cls-2" d="M266.125,114.612a2.907,2.907,0,0,1-1.764,1.68c-2.89,1.159-3.578,4.066-5.04,6.451l-1.277-1.848c-.185-3.226-2.755-4.284-5.645-5.8,4.082-1.5,6.317-4.116,6.535-8.182a1.681,1.681,0,0,0,.353-.487C260.279,110.294,261.808,113.654,266.125,114.612Z" transform="translate(171.675 72.371)"/>
      <path id="Path_12" data-name="Path 12" class="cls-2" d="M313.417,209.356c2.033-1.6,1.478-4.418,3.074-6.586,1.109,5.41,3.713,9.29,9.542,10.954-4.67,1.882-7.946,4.536-8.82,9.29-.706,1.9-1.378,1.882-1.764-.1-.907-4.7-3.847-7.476-8.4-8.988C309.452,212.615,312.157,211.976,313.417,209.356Z" transform="translate(208.836 137.881)"/>
      <path id="Path_13" data-name="Path 13" class="cls-2" d="M297.393,241.542c-4.6,1.68-6.334,4.351-7.745,8.568-1.226-4.066-2.722-7.022-7.308-8.4,4.385-1.529,6.4-4.15,7.174-9.24C290.874,237.224,292.487,240.08,297.393,241.542Z" transform="translate(192.034 158.077)"/>
      <path id="Path_14" data-name="Path 14" class="cls-2" d="M175.331,157.718c-4.234,1.512-6.014,4.536-7.375,8.854-.874-4.57-2.7-7.543-7.426-8.854,4.738-1.31,6.636-4.116,7.392-8.618C169.333,153.182,171.1,156.223,175.331,157.718Z" transform="translate(109.204 101.386)"/>
      <path id="Path_15" data-name="Path 15" class="cls-2" d="M264.71,195.665c3.36-1.6,5.7-3.36,6.283-6.955a10.332,10.332,0,0,0,6.384,6.6,10.7,10.7,0,0,0-6.216,8.131C270,199.277,268.708,196.472,264.71,195.665Z" transform="translate(180.046 128.32)"/>
      <path id="Path_16" data-name="Path 16" class="cls-2" d="M211.076,258.182h0c-3.259.806-4.788,3.276-6.014,7.8-.924-4.3-2.2-6.854-6.132-8a10.433,10.433,0,0,0,6.149-6.72C206.1,254.62,208.741,256.25,211.076,258.182Z" transform="translate(135.316 170.854)"/>
      <path id="Path_17" data-name="Path 17" class="cls-2" d="M228.2,130.47c1.378,3.511,2.755,5.947,7.174,7.022a9.475,9.475,0,0,0-7.022,7.123c-1.411-3.108-2.4-5.981-7.157-6.821a9.408,9.408,0,0,0,7.006-7.325Z" transform="translate(150.453 88.718)"/>
      <path id="Path_18" data-name="Path 18" class="cls-2" d="M230.826,308.786c-.806-2.839-4.351-3.091-5.426-5.7,4.234-.806,5.712-3.847,6.35-8.03,1.68,3.578,2.923,7.106,7.913,8.4-4.469,1.579-6.233,4.4-7.51,8.215Z" transform="translate(153.315 200.637)"/>
      <path id="Path_19" data-name="Path 19" class="cls-2" d="M237.9,235.957l-1.126,2.957c-1.31-6.014-3.36-10.466-10.416-11.76,6.72-1.394,9.206-5.275,10.483-10.634,1.445,5.04,4.166,8.786,9.089,10.6,0,.118-.151.269-.235.37a2.9,2.9,0,0,1-.353.286,10.634,10.634,0,0,0-7.442,8.181Z" transform="translate(153.968 147.231)"/>
      <path id="Path_20" data-name="Path 20" class="cls-2" d="M321.693,182.625c0-4.082-3.78-5.292-5.813-7.829,4.15-.554,5.258-3.814,6.384-7.577,1.411,3.528,2.822,6.636,7.342,8.014-4.62,1.445-4.519,5.88-7.358,7.98a1.339,1.339,0,0,1-.3-.218A2.861,2.861,0,0,1,321.693,182.625Z" transform="translate(214.841 113.707)"/>
      <path id="Path_21" data-name="Path 21" class="cls-2" d="M284.017,290.59c-.806-5.04-2.671-7.829-7.157-9.273,4.486-1.31,6.418-4.1,7.157-8.786,1.294,4.368,3.125,7.342,7.493,8.77C287.175,282.946,285.31,285.9,284.017,290.59Z" transform="translate(188.308 185.317)"/>
      <path id="Path_22" data-name="Path 22" class="cls-1" d="M154.178,132.385c2.772-.958,1.966-4.536,4.267-5.83a8.165,8.165,0,0,1,5.443-3.528c-.1-1.579-1.781-1.428-2.52-2.3-4.217-1.68-5.04-5.83-6.619-10.416-.958,6.518-3.562,10.685-10.45,12.18C150.65,123.935,153.439,127.244,154.178,132.385Z" transform="translate(98.168 75.009)"/>
      <path id="Path_23" data-name="Path 23" class="cls-1" d="M121.788,181.63l-1.008,2.318c-.806,2.89-3.142,4.234-5.88,5.46,4.855.638,5.242,5.141,7.61,7.812.454-2.5,1.21-4.8,3.73-6.014l.874-.706,1.915-.773-.386-1.243C124.459,188.367,124.006,184.2,121.788,181.63Z" transform="translate(78.177 123.506)"/>
      <path id="Path_24" data-name="Path 24" class="cls-1" d="M208.878,52.357c1.579-3.847,3.36-6.888,7.879-8.518-4.822-1.26-6.518-4.3-7.8-8.4-1.075,4.25-2.554,7.392-6.972,8.568C206.392,45.016,207.618,48.376,208.878,52.357Z" transform="translate(137.397 24.098)"/>
      <path id="Path_25" data-name="Path 25" class="cls-1" d="M168.008,85.877c1.025-3.763,2.386-6.182,5.309-7.258.353-.722,1.21-1.462-.084-2.117-3.494-1.075-4.15-4.385-5.678-7.493-.823,4.032-2.4,7.157-6.485,8.618C165.136,78.872,166.194,82.248,168.008,85.877Z" transform="translate(109.572 46.926)"/>
      <path id="Path_26" data-name="Path 26" class="cls-1" d="M421.877,284.847c-.907-4.7-3.847-7.476-8.4-8.988,2.47-1.31,5.174-1.949,6.434-4.57-4.822-9.509-10.4-18.48-18.782-25.317a75.449,75.449,0,0,0-45.595-17.27c-1.042,0-2.083-.151-3.125-.235-8.014.487-16.01.84-23.873,2.856a195.652,195.652,0,0,0-24.679,7.56c-15.54,6.216-30.727,13.44-47.426,16.2-15,2.419-29.383,1.68-40.437-10.937l-1.68,4.032c-1.109-5.342-3.226-9.542-9.492-11.206,3.007-1.26,5.46-2.083,6.72-4.435-2.822-18.6,9.929-38.757,27.653-43.68a24.259,24.259,0,0,1,30.374,27.619c-1.327,7.325-6.72,10.315-13.608,7.51a25.686,25.686,0,0,1-6.938-4.116c-1.882-1.546-3.83-3.041-6.35-5.04a25.938,25.938,0,0,0,2.755,8.954c5.645,13.037,14.028,18.48,28.19,17.573,12.919-.773,23.637-6.586,33.079-15.12a50.988,50.988,0,0,0,17.422-42.151c-.638-11.458-5.04-22.109-11.407-31.819a91.492,91.492,0,0,0-46.62-37.094,102.832,102.832,0,0,0-39.53-2.654c-5.527,1.277-7.174,5.746-8.551,10.567-1.126-2.554-1.075-5.477-3.36-7.308l-2.52.5-10.6,4.469-2.873,1.68-7.022,3.881H191.5a1.478,1.478,0,0,1-1.68,1.042v-.017c-.319,1.394-1.512,1.831-2.621,2.369l-5.023,4.351-10.618,11.861-.756.857-9.929,18.161a.924.924,0,0,1-.235.672,35.078,35.078,0,0,1-3.209,8.1l-.454,1.8a14.094,14.094,0,0,1-1.68,5.376l-.353,1.831-.655,2.688c-.2.622-.386,1.226-.571,1.848-.991,6.72-2.335,13.44-2.856,20.311a89.863,89.863,0,0,0,4.67,37.161l.706,1.848.235.3-.235.252-.79.538c.3,2.184,3.36,2.066,3.629,4.234l8.938,12.634c1.831,1.5,3.713,2.94,5.494,4.486,17.237,14.986,36.96,22.646,60.026,20.261,2.6-.974,5.561,0,8.064-1.546l1.9-.4,1.814-.235,8.921-2.923,1.865-.739a1.563,1.563,0,0,1,.806-.286c12.869-5.275,25.7-10.651,40-10.517a40.32,40.32,0,0,1,39.917,36.96,26.7,26.7,0,0,1-25.4,29c-9.878.5-18.967-2.184-27.7-6.317-8.1-3.847-16.044-8.014-24.057-12.046l-.958-.706h0a3.074,3.074,0,0,1-2.688-1.831,10.718,10.718,0,0,1-6.233-1.915l-2.722-.89-1.361-.79-2.251-.235h-.84c-1.982.168-3.629-.924-5.426-1.478-1.68-.1-3.36-.118-4.939-.3a54.146,54.146,0,0,0-37.077,9.29c-8.669,5.712-14.314,13.86-19.169,22.747.958,4.368,4,6.72,8.8,8.5-6.1,1.814-8.5,6.233-10.08,11.861a15.808,15.808,0,0,0-1.882-6.115,52.768,52.768,0,0,0,5.359,31.819c6.317,12.314,15.993,19.622,30.24,20.412,8.165.437,16.061-1.008,23.99-2.5,8.786-1.68,17.522-3.83,26.561-3.713a62.781,62.781,0,0,1,32.928,4.166c17.925,7.61,24.612,24.612,16.632,42.437-3.074,6.871-7.862,12.667-11.592,19.1l.79.773c28.375-14.868,33.986-46.065,21.2-70.039-5.527-10.366-15.3-14.482-25.855-17.388-11.088-3.041-22.646-4.015-33.5-8.03a30.862,30.862,0,0,1-11.206-6.317c-4.62-4.452-7.392-9.425-4.334-15.977-3.276.806-4.8,3.276-6.031,7.8-.924-4.3-2.2-6.854-6.132-8a10.433,10.433,0,0,0,6.149-6.72c1.025,3.36,3.662,5.04,6,6.9,6.9-8.232,15.691-9.442,25.855-8.047,12.7,1.68,22.9,8.114,33.163,15.019,7.09,4.771,13.776,10.181,21.621,13.877a81.511,81.511,0,0,0,18.765,5.729,108.492,108.492,0,0,0,46.334-9.139c15.926-6.888,26.661-18.48,31.8-35.112s6.367-33.432,2.117-50.4C422.935,286.931,422.263,286.83,421.877,284.847ZM276.239,143.241c1.378,3.511,2.755,5.947,7.174,7.022a9.475,9.475,0,0,0-7.022,7.123c-1.411-3.108-2.4-5.981-7.157-6.821a9.408,9.408,0,0,0,7.006-7.325Zm-101.4,48.77c-.874-4.57-2.7-7.543-7.426-8.854,4.738-1.31,6.636-4.116,7.392-8.618,1.411,4.082,3.175,7.123,7.409,8.618C177.892,184.67,176.111,187.694,174.835,192.011Zm174.047,63.84c-1.159-4.234-2.453-6.972-6.451-7.778,3.36-1.6,5.7-3.36,6.283-6.955a10.332,10.332,0,0,0,6.384,6.6,10.7,10.7,0,0,0-6.3,8.1Zm30.391,76.439c-1.226-4.066-2.722-7.022-7.308-8.4,4.385-1.529,6.4-4.15,7.174-9.24,1.361,4.721,2.974,7.644,7.879,9.038C382.414,325.352,380.684,328.023,379.272,332.29Z" transform="translate(102.409 75.947)"/>
      <path id="Path_27" data-name="Path 27" class="cls-1" d="M213.33,234.33v.017h.017Z" transform="translate(145.108 159.341)"/>
      <path id="Path_28" data-name="Path 28" class="cls-1" d="M260,140.054v.05Z" transform="translate(176.843 95.144)"/>
      <path id="Path_29" data-name="Path 29" class="cls-1" d="M239,125.8c6.451,10.282,19.219,18.379,33.029,7.274a1.681,1.681,0,0,0,.353-.487c3.763-4.435,6.72-9.24,6.72-15.288.118-7.594-4.015-11.1-11.441-9.542-2.906.6-5.729,1.68-9,2.587a10.282,10.282,0,0,1,6.283-8.988c8.081-3.562,19.051.353,23.285,8.148,5.04,9.458,4.183,17.136-3.142,25.082-1.932,2.083-3.948,4.1-5.93,6.132a2.906,2.906,0,0,1-1.764,1.68l-4.654,8.8-.806,3.024.084.235-.218.151c-2.722,12.281.672,23.52,6.283,34.171l-.706-8.753c-.941-11.256-.874-22.293,7.442-31.3,4.519-4.889,10.181-8.4,15.658-11.978,11.458-7.644,18.329-17.791,16.262-32.088-2-13.81-8.5-24.83-21.655-31.029a17.977,17.977,0,0,0-1.378,2.218A28.343,28.343,0,0,0,292.693,79c-1.68-3.562-2.083-7.308-5.594-8.954l-1.814-.756h0c-6.065-.756-12.113-1.68-18.261-1.025-8,.857-15.406,3.242-21.521,8.686-9.526,8.5-12.516,19.605-12.3,31.92C234.548,114.779,235.758,120.609,239,125.8Z" transform="translate(158.615 46.264)"/>
      <path id="Path_30" data-name="Path 30" class="cls-1" d="M167.183,232.185a15.876,15.876,0,0,1-6.586-7.711,1.512,1.512,0,0,1-1.26-1.529,25.856,25.856,0,0,1-2.218-8.3c-.286-.521-.454-1.378-.857-1.5-.941-.286-.588.689-.655,1.092-.521,2.94-.874,5.947-2.873,8.4a12.383,12.383,0,0,1-1.277,3.73c-1.546,2.033-2.268,5.275-5.914,4.738l-.353,1.445c-2.47,2.52-6.266,2.335-9.542,4.318,11.76,1.68,18.933,10.248,20.16,23.352,3.142-11.323,8.081-21.067,21.4-23.637L169,233.5C167.923,234.3,167.923,234.3,167.183,232.185Z" transform="translate(92.286 144.905)"/>
      <path id="Path_31" data-name="Path 31" class="cls-1" d="M203,95.507c8.82,2.486,13.44,7.644,14.616,15.691l-.722,1.193c1.831,1.68,2.218.874,2.638-1.193a19.354,19.354,0,0,1,8.4-12.734c1.831-1.243,4.5-.991,5.914-3.36-8.82-2.268-13.053-8.4-14.6-16.951,0-.437.47-2.066-1.176-1.226l-.252,1.8C217.011,87.459,212.458,93.054,203,95.507Z" transform="translate(138.084 52.147)"/>
      <path id="Path_32" data-name="Path 32" class="cls-1" d="M366.881,146.893c-.134-.571-.252-1.142-.386-1.68-.286-.89-.554-1.781-.84-2.671-.554-1.8-1.126-3.6-1.68-5.41-.252-.622-.5-1.26-.739-1.882s-.588-1.193-.874-1.781l-5.443-8.669a50.4,50.4,0,0,0-11.928-9.425c-17.035-8.534-42.4-2.6-55.288,12.667-8.316,9.862-10.3,20.916-7.9,33.213,1.562,7.963,2.94,16.094.941,24.074-3.36,13.272-12.23,22.646-22.7,30.962,15.993-4.166,31.8-8.786,44.721-19.975h0l1.546-1.865,2.05-2.6a37.314,37.314,0,0,0,4.553-14.347v-5.41a28.458,28.458,0,0,1,.806-14.364l1.512-3.612c1.462-3.461,3.562-6.283,7.409-7.325h0a2.57,2.57,0,0,1,2.738-1.042v.134l1.025-.655a9.357,9.357,0,0,1,4.519-.118,3.192,3.192,0,0,1,2.772.722l1.9.974c4.721,3.276,5.544,7.207,2.654,12.718a3.36,3.36,0,0,1-1.8,2.7c-3.192,5.04-7.274,4.519-11.76,1.831v1.68a3.545,3.545,0,0,1,.4,2.738c.42,1.764.857,3.528,1.277,5.292l3.276,4.6a.6.6,0,0,1,.42.454l4.519,2.806a34.91,34.91,0,0,0,11.374,1.68l1.949-.319,7.123-2.285.991-.6a36.757,36.757,0,0,0,7.358-7.174l1.176-2.05a42.436,42.436,0,0,0,2.923-19.589,9.575,9.575,0,0,1-.6-4.4Z" transform="translate(176.877 75.789)"/>
      <path id="Path_33" data-name="Path 33" class="cls-1" d="M301.606,108.837c3.125-7.409,3.931-8.4,9.979-11.575-5.712-1.478-8.4-5.544-9.929-10.752-.823,5.846-3.713,9.61-10.416,11.054C298.01,98.891,300.413,103.108,301.606,108.837Z" transform="translate(198.086 58.825)"/>
      <path id="Path_34" data-name="Path 34" class="cls-1" d="M260,140h0l.454.622Z" transform="translate(176.843 95.198)"/>
      <path id="Path_35" data-name="Path 35" class="cls-1" d="M230.432,302.274l-2.873-6.014A12.634,12.634,0,0,1,218,307.583c6.72,1.68,8.719,5.93,9.862,12.348,1.092-6.082,3.578-9.794,8.047-12C235.052,305.13,231.44,304.878,230.432,302.274Z" transform="translate(148.283 201.453)"/>
      <path id="Path_36" data-name="Path 36" class="cls-1" d="M248.333,229.419a13.557,13.557,0,0,1-7.661-6.2,10.634,10.634,0,0,0-7.442,8.182c3.679,1.68,4.082,5.544,5.863,9.206a15.12,15.12,0,0,1,9.24-11.189Z" transform="translate(158.64 151.787)"/>
      <path id="Path_37" data-name="Path 37" class="cls-1" d="M324.645,177.143a22.7,22.7,0,0,1-5.158-13.238l.084-.134-1.445.386c.1,6.72-1.9,12.5-8.131,16.094l-3.646,1.68-3.36,1.294c2.621.907,4.822.958,6.384,2.537,6.821,3.142,7.862,9.845,9.727,16.8,1.68-7.9,4.217-14.246,11.29-17.623C330.508,180.956,326.678,179.68,324.645,177.143Z" transform="translate(206.076 111.361)"/>
      <path id="Path_38" data-name="Path 38" class="cls-1" d="M343.254,190.68c-.521,4.586-2.856,6.552-6.333,8.4,4.1,1.31,5.376,4.418,6.922,7.9,1.428-3.662,2.755-6.72,7.19-7.862C346.966,197.35,345.219,194.578,343.254,190.68Z" transform="translate(229.148 129.66)"/>
      <path id="Path_39" data-name="Path 39" class="cls-2" d="M335.2,127.26c.941,5.46,3.192,9.962,8.854,11.978-.185,1.68-2.1,1.327-2.839,2.352a7.241,7.241,0,0,0-3.931,4.351c-1.243,1.394-1.226,3.36-2.066,5.359-1.546-5.309-3.007-10.4-9.458-10.937l-.1-1.075c1.092-.2,2.318,0,3.007-1.243l.907-.84a2.638,2.638,0,0,0,2.822-2.789,5.88,5.88,0,0,0,1.9-5.326C335.152,128.755,335.085,127.966,335.2,127.26Z" transform="translate(221.491 86.535)"/>
      <path id="Path_40" data-name="Path 40" class="cls-3" d="M14.35,216.843c5.7-8.568,13.121-15.674,19.723-23.52,8.534-10.08,17.287-19.908,25.771-30,2.47-2.94,4.435-3.8,7.678-1.042q47.98,40.756,96.1,81.311c1.915,1.68,2.906,3.226,1.949,5.662-2.318,6.485-7.678,10.685-11.945,15.624-10.5,12.163-20.949,24.477-31.718,36.506-1.327,1.478-2.436,3.276-4.7,3.511-2.218-.571-3.36-2.671-5.141-3.763-29.87-24.9-59.337-50.248-89.207-75.146C19.676,223.328,16,220.993,14.35,216.843Z" transform="translate(9.804 109.208)"/>
      <path id="Path_41" data-name="Path 41" class="cls-4" d="M24.126,194.08c13.44,11.239,26.88,22.445,40.32,33.751q29.282,24.746,58.464,49.644c1.277,2.033,0,3.562-1.142,4.939-3.175,3.8-5.88,8.014-9.425,11.458-5.46,5.342-10.08,11.071-11.642,18.8-10.382-7.392-19.706-16.061-29.349-24.343-7.476-6.418-15.288-12.432-22.7-18.933-9.878-8.686-20.076-17.018-30.156-25.469-4.318-3.646-8.786-7.123-13.02-10.87-6.938-6.166-7.375-10.5-.991-17.153,5.914-6.166,10.987-13.02,16.649-19.37a25.855,25.855,0,0,1,2.99-2.453Z" transform="translate(0.027 131.972)"/>
      <path id="Path_42" data-name="Path 42" class="cls-5" d="M84.88,268.437q22.411-25.872,44.839-51.727a48.206,48.206,0,0,1,3.528-3.36l11.155,9.492c1.26,2.89-1.109,4.4-2.537,6.065q-21.672,24.965-43.293,49.879c-2.6,2.2-4.234,5.443-7.325,7.123a3.208,3.208,0,0,1-2.671-.185c-2.839-1.781-4.906-1.26-7.039,1.394s-3.36,4.754-.538,7.543a2.957,2.957,0,0,1,.454,3.142,13.2,13.2,0,0,1-3.36,4.267c-4.334,4.015-8.282,4.066-12.566.168s-4.889-8.03-1.31-12.5c5.342-6.72,11.206-12.97,16.9-19.4A4.586,4.586,0,0,1,84.88,268.437Z" transform="translate(42.123 145.075)"/>
      <path id="Path_43" data-name="Path 43" class="cls-3" d="M83,274.485q19.538-22.663,39.009-45.36c2.738-3.175,5.292-6.5,7.93-9.761,1.5-.571,3.192-1.8,4.351.185s-.5,3.041-1.562,4.267L86.36,277.039C84.159,277.661,83.269,276.485,83,274.485Z" transform="translate(56.485 148.552)"/>
      <path id="Path_44" data-name="Path 44" class="cls-6" d="M86.441,247.786C79.99,255.245,73.522,262.7,67.121,270.2c-3.7,4.318-3.36,6.283,1.277,10.483,3.662,3.36,6.938,3.73,10.231-.4,1.243-1.562,2.7-2.957,4.066-4.435,2.15-.286,3.578.269,3.36,2.822-1.529,1.814-2.923,3.746-4.586,5.443-5.174,5.225-9.811,5.342-15.338.454-2.066-1.814-4-3.763-5.981-5.645-2.167-6.8,2.318-11.1,6.182-15.3a141.118,141.118,0,0,0,16.01-19.891A8.1,8.1,0,0,1,86.441,247.786Z" transform="translate(40.562 165.726)"/>
      <path id="Path_45" data-name="Path 45" class="cls-7" d="M78.584,271.346a6.552,6.552,0,0,0-3.36-2.822,12.92,12.92,0,0,0-2.268-2.268c-3.091-1.781-3.041-3.646-.47-5.83a4.453,4.453,0,0,0,1.075-1.243c2.99-5.527,6.72-6.3,11.273-1.68,1.882.252,3.6.706,3.78,3.058,5.04,2.957,3.83,7.526,3.158,11.978-.336,2.318-.655,4.654-1.092,7.678Z" transform="translate(48.049 173.044)"/>
      <path id="Path_46" data-name="Path 46" class="cls-6" d="M82.814,262.293,79,259.236l6.72-7.426,3.36,2.537Z" transform="translate(53.765 171.228)"/>
      <path id="Path_47" data-name="Path 47" class="cls-4" d="M97.763,90.7h0a8.4,8.4,0,0,0-6.6,6.451,80.1,80.1,0,0,0-3.041,20.16,18.681,18.681,0,0,0,6.518-6.384,13.054,13.054,0,0,0,11.29.806l3.629-20.664C105.642,90.594,101.778,88.629,97.763,90.7Z" transform="translate(59.966 61.041)"/>
      <path id="Path_48" data-name="Path 48" class="cls-4" d="M87.8,152.495h0c-3.041.655-4.6,3.007-6.166,5.359a73.919,73.919,0,0,0-3.226,19.975c1.462-3.242,4.267-4.906,7.308-6.283,3.6-.823,7.022.454,10.534.739q1.546-9.811,3.058-19.622C95.546,151.89,91.732,150.731,87.8,152.495Z" transform="translate(53.364 103.064)"/>
      <path id="Path_49" data-name="Path 49" class="cls-4" d="M95.15,106.708h0a11.088,11.088,0,0,0-6.4,5.611,61.873,61.873,0,0,0-2.89,17.589,12.3,12.3,0,0,1,8.182-6.72,31.331,31.331,0,0,1,9.677.991l2.722-17.22C102.693,106.372,98.964,105.263,95.15,106.708Z" transform="translate(58.43 72.076)"/>
      <path id="Path_50" data-name="Path 50" class="cls-8" d="M109.366,90.55q42.873,6.72,85.679,13.44c2.89.454,3.7,1.882,3.259,4.687q-9.643,60.076-19.2,120.186a8.635,8.635,0,0,1-4.435,0q-39.782-6.35-79.581-12.65c-2.083-.319-4.267-.454-5.88-2.1a5.242,5.242,0,0,1-.672-3.965c.84-5.544,1.428-11.138,2.806-16.6,1.226-11.306,3.36-22.478,5.04-33.7,1.327-8.5,2.352-17.069,4.267-25.485a126.871,126.871,0,0,1,2.722-17.052,24.31,24.31,0,0,1,1.008-6.3c.37-5.561,1.529-11,2.436-16.481A5.376,5.376,0,0,1,109.366,90.55Z" transform="translate(60.157 61.573)"/>
      <path id="Path_51" data-name="Path 51" class="cls-1" d="M107.587,117.846C93.459,200.3,105.639,168.8,80.17,181.4c3.578-20.6,5.04-40.32,10.618-61.118C93.9,115.326,103.791,113.36,107.587,117.846Z" transform="translate(54.561 78.427)"/>
      <path id="Path_52" data-name="Path 52" class="cls-9" d="M96.816,164.817l84.755,13.44a8.1,8.1,0,0,1,4.872,1.68c-.134.941-.252,1.865-.386,2.789A3.78,3.78,0,0,1,181.571,184q-44.6-7.039-89.207-14.146c-2.386-.386-4.721-.857-6.619,1.21a17.421,17.421,0,0,0-1.932,3.175,6.317,6.317,0,0,0,5.04,8.77,12.515,12.515,0,0,1,4.334,1.042c1.478,1.68,3.36.638,5.04.538a28.561,28.561,0,0,1,5.594.924c1.6.319,2.352,3.091,4.586,1.5,20.529,2.94,40.958,6.468,61.437,9.593,1.949,0,3.83.588,5.762.739,1.277.084,2.671.588,3.713-.722a2.318,2.318,0,0,1,.958-.47c1.781.79,2.15,2.654,3.074,4.082,0,2.537-1.142,3.36-3.8,2.957-30.895-5.04-61.807-9.794-92.7-14.784-7.946-1.277-11.306-9.442-7.778-18.043.386-4.8,4.25-6,7.812-7.51C90.348,162.365,93.876,162.146,96.816,164.817Z" transform="translate(52.866 110.532)"/>
      <path id="Path_53" data-name="Path 53" class="cls-1" d="M88.557,108.811c2.722-6.518,9.9-7.661,17.791-5.578-.1,4.1-1.159,5.578-2.218,6.1-1.882.924-3.763-1.109-6.838-.941a10.08,10.08,0,0,0-6.888,4.234c-.958.857-2.15,1.68-2.7,1.411S87.7,110.827,88.557,108.811Z" transform="translate(59.53 69.553)"/>
      <path id="Path_54" data-name="Path 54" class="cls-4" d="M141.243,174.93l3.679-.37q-1.411,8.736-2.806,17.505c-1.848-.571-3.444-1.344-2.923-3.763a2.1,2.1,0,0,1-.991-2.15,10.7,10.7,0,0,1,.286-2.419,17.79,17.79,0,0,1,.37-2.335,21.853,21.853,0,0,1,.37-2.335,9.039,9.039,0,0,1,.319-1.764,2.789,2.789,0,0,1,1.7-2.369Z" transform="translate(94.002 118.698)"/>
      <path id="Path_55" data-name="Path 55" class="cls-1" d="M106.81,148.188c1.26-8.03,2.5-16.077,3.83-24.108.722-4.452,2.268-5.594,6.72-4.906q19.689,3.058,39.312,6.233c5.426.89,6.485,2.419,5.628,7.98q-3.562,22.243-7.09,44.5c-.235,1.478-.689,2.923-1.058,4.368a3.528,3.528,0,0,1-4.469,2.906q-21.689-3.36-43.394-6.888c-3.36-.521-3.746-2.822-3.36-5.611Q104.811,160.419,106.81,148.188Z" transform="translate(69.954 80.911)"/>
      <path id="Path_56" data-name="Path 56" class="cls-1" d="M135.65,114.79c-7.426-1.176-14.834-2.386-22.26-3.511-2.2-.353-4.166-1.109-3.78-3.662s2.3-2.906,4.6-2.537q22.243,3.578,44.52,7.056c2.251.353,3.914,1.126,3.36,3.83s-2.537,2.638-4.637,2.3C150.249,117.092,142.941,115.95,135.65,114.79Z" transform="translate(74.546 71.369)"/>
      <path id="Path_57" data-name="Path 57" class="cls-7" d="M89.18,169.823c4.183-.991,8.081.706,12.1,1.243,1.68.218,1.109,1.68.991,2.755-.37,3.091-.823,6.166-1.226,9.24-2.234,2.722-1.966-1.361-3.276-1.176-2.033-1.68-4.2-2.57-6.72-1.109-1.176-.521-2.94,4.049-3.629-.437a3.8,3.8,0,0,1-.706-2.285,12.7,12.7,0,0,1,.3-2.386,18.8,18.8,0,0,1,.386-2.335,8.013,8.013,0,0,1,.538-2.318,2.083,2.083,0,0,1,1.243-1.193Z" transform="translate(59.007 115.27)"/>
      <path id="Path_58" data-name="Path 58" class="cls-10" d="M89.27,177.053c3.8-2.906,3.8-2.906,6.72,1.109Z" transform="translate(60.748 118.994)"/>
      <path id="Path_59" data-name="Path 59" class="cls-5" d="M180.654,180.762l-91.9-14.65c-2.638-.42-5.04.1-6.334,2.755h0c-4.4,6.149-2.033,12,5.342,13.2l4.032.655.353-2.386c.118-.739.252-1.478.37-2.218h0l.336-2.234c.118-.756.252-1.5.37-2.234h0a3.967,3.967,0,0,1,.185-.739c2.285.454,4.6.554,6.871.958,4.906.84,4.872.874,4.351,5.712-.2,1.966-1.344,4.183.823,5.863,1.478.218,2.974.42,4.452.655l58.968,9.24c2.2.386,4.435.689,6.636,1.176s2.806-.386,2.755-2.3h0l.336-.1.151-2.3c.1-.773.2-1.529.319-2.3s.252-1.445.37-2.167.235-1.529.336-2.285l.2-1.478h0C180.2,182.66,180.419,181.7,180.654,180.762Z" transform="translate(54.59 112.866)"/>
      <path id="Path_60" data-name="Path 60" class="cls-11" d="M516.954,376.132c-.437-1.546-.89-3.091-1.344-4.637-2.066.924-4.166.386-6.233.151h2.134a4.922,4.922,0,0,0,3.881-.823,84.434,84.434,0,0,1-4.4-9.878c-1.68-5.712-7.09-8.938-9.24-14.364-1.327-3.36-2.772-6.72-5.813-9a8.3,8.3,0,0,0-4.469-1.68c-18.749-2.05-37.245-5.628-55.776-8.9-10.248-1.68-20.361-4.049-30.559-6.014-20.529-3.965-41.16-6.888-62.16-6.938-4.906.084-9.828,0-14.767,0a100.232,100.232,0,0,0-16.01,1.68c-23.822,3.36-45.948,10.9-64.545,26.712-4.7,4-9.794,7.812-12.382,13.793,0,1.361,1.025,1.966,2.033,2.453,8.3,4.1,13.961,10.718,18.278,18.7.773,1.411,1.478,2.923,3.36,3.36a18.043,18.043,0,0,0,7.577-.638c19.605-5.04,39.665-6.8,59.791-7.241a354.673,354.673,0,0,1,42.638,2.4q27.216,2.7,54.448,5.04c3.142,0,6.216.773,9.358.773h80.035c1.68,0,3.545.185,4.939-1.226Z" transform="translate(160.027 213.543)"/>
      <path id="Path_61" data-name="Path 61" class="cls-11" d="M311.857,320.435c-15.607-7.426-32.457-9.206-49.358-10.181a243.871,243.871,0,0,0-46.788,2.57c-27.6,3.7-54.616,10.433-81.832,16.061q-26.309,5.426-52.852,9.643a16.3,16.3,0,0,0-6.72,1.915c-2.033,1.68-2.654,4.166-3.914,6.3-1.966,3.36-3.142,7.678-5.981,9.778-3.192,2.335-4.234,5.158-5.393,8.4-1.68,4.452-3.36,8.87-5.04,13.289,1.042.991,2.352.689,3.562.722H56.4a4.318,4.318,0,0,0-3.192.756l-.756,2.957c1.68,1.68,3.982,1.243,6.048,1.226,20.714-.185,41.429.655,62.16-.756,11.441-.924,22.915-1.5,34.373-2.2,12.1-.739,24.175-1.68,36.254-2.6,16.8-1.21,33.415-2.184,50.148-2.722a309.6,309.6,0,0,1,31.08,1.428,139.072,139.072,0,0,1,33.18,5.779,8.869,8.869,0,0,0,3.814.319c1.68-.756,2.184-2.369,2.923-3.8,6.317-12.113,16.145-19.1,29.837-20.58,1.9-.2,4.066,0,5.292-2.1a10.2,10.2,0,0,0-1.68-4.922,73.919,73.919,0,0,0-34.02-31.281Z" transform="translate(35.711 210.827)"/>
      <path id="Path_62" data-name="Path 62" class="cls-12" d="M307.957,276.77a280.565,280.565,0,0,1,34.49-20.294c10.214-5.225,20.613-10.08,30.929-15.12L385.4,236.82c-2.386,8.568-4.62,16.565-6.838,24.561-.756,2.722-3.276,2.083-5.04,2.386q-17.892,3.125-35.549,7.325a288.158,288.158,0,0,0-29.837,8.635,5.46,5.46,0,0,1-3.242.706C304.6,278.164,307.4,278.383,307.957,276.77Z" transform="translate(207.358 161.035)"/>
      <path id="Path_63" data-name="Path 63" class="cls-13" d="M310.062,260.6c.2,2.218-2.806,1.848-3.024,3.73a14.9,14.9,0,0,1-5.258,2.318C303.93,263.809,307.19,262.465,310.062,260.6Z" transform="translate(205.253 177.205)"/>
      <path id="Path_64" data-name="Path 64" class="cls-8" d="M250.693,354a31.553,31.553,0,0,0,7.644-.84c44-1.344,88-.252,132-.571q9.929,0,19.824.79a14.045,14.045,0,0,0,5.225-.2c29.467,1.445,58.951.37,88.435.689,2.134,0,4.25,0,6.367-.084,4.1.571,6.115,2.419,5.9,5.376s-2.419,4.519-6.6,4.519H263.763c-1.562,0-3.276-.571-4.687.689a23.974,23.974,0,0,1-8.551-.084c-2.3-.437-4.418-1.31-4.166-4.3.218-.79.622-1.378,1.546-.907,3.041,1.562,3.142,0,2.587-2.369C250.273,355.8,249.869,354.856,250.693,354Z" transform="translate(167.553 239.675)"/>
      <path id="Path_65" data-name="Path 65" class="cls-8" d="M54.741,353.73c20.714-.1,41.429.806,62.16-.571,2.117-.134,4.234,0,6.35,0,5.863.79,11.76-.118,17.573-.235,5.376-.1,10.752-.3,16.128-.3q71.164,0,142.329-.1c3.242,0,6.4.958,9.643.588l2.856.823c.638.773.252,1.68.118,2.436s-.806,2.386.5,2.923,1.68-.941,2.234-1.814.89-2.688,2.806-2.234a4.234,4.234,0,0,1,1.764,5.208,5.813,5.813,0,0,1-5.275,4.082c-3.7.353-7.459-.218-11.121.739-.874-2.268-2.839-1.562-4.469-1.562H55.867c-2.016,0-4.049.134-5.544-1.68a4.738,4.738,0,0,1-.924-4.906C50.306,354.6,52.305,353.9,54.741,353.73Z" transform="translate(33.42 239.709)"/>
      <path id="Path_66" data-name="Path 66" class="cls-7" d="M255.037,340.122l1.529.286c10.668,4.738,17.388,13.255,22.5,23.335a19.483,19.483,0,0,0,.655,2.453c.672,1.579,1.042,3.209-.6,4.284-2.016,1.31-2.738-.638-3.713-1.8-3.948-11.76-10.8-21.252-23.184-24.511-17.237-4.519-34.524,3.158-41.412,20.849-.521,1.243-1.025,2.5-1.579,3.73s-1.378,2.554-3.041,1.865a2.57,2.57,0,0,1-1.327-3.444c.336-1.193.756-2.352,1.142-3.511,4.217-9.206,10.08-16.9,19.488-21.453a47.041,47.041,0,0,1,18.127-4.066c.924.974,2.05.487,3.125.47l4.637.37Z" transform="translate(139.184 229.931)"/>
      <path id="Path_67" data-name="Path 67" class="cls-14" d="M290.14,315.089a36.625,36.625,0,0,1,15.809,0Z" transform="translate(197.338 213.67)"/>
      <path id="Path_68" data-name="Path 68" class="cls-7" d="M176.461,359.12l-.151-11.239c-.706-3.73.37-7.526-.336-11.273l-.134-1.68a1.68,1.68,0,0,1-.118-2.3V318.616a1.428,1.428,0,0,1,1.126-.454,129.26,129.26,0,0,1,34.406,4.334,10.7,10.7,0,0,1,4.166,1.6,1.008,1.008,0,0,1,.269,1.142c-.286,14.683-.571,29.349-.874,44.856l-6.838-5.04a13.321,13.321,0,0,1-4.368-2.369c-.42-.269-.79-.588-1.176-.89-8.4-6.552-5.242-6.216-14.263-.874a10.281,10.281,0,0,1-2.839,1.109c-3.074.706-5.275,3.058-8.4,4.385-.924-1.68-.2-3.36-.638-5.04A1.865,1.865,0,0,1,176.461,359.12Z" transform="translate(119.263 216.343)"/>
      <path id="Path_69" data-name="Path 69" class="cls-4" d="M283.646,371.733c-2.755-.4-5.779-.487-5.174-4.637a2.99,2.99,0,0,0,0-3.209c-2.738-6.065-6-11.76-11.239-16.111a31.752,31.752,0,0,0-22.949-7.19c-13.272.706-22.865,7.006-29.417,18.278-.773,1.344-1.68,2.822-.941,4.57,1.68,1.344,2.755,3.007,1.68,5.124a5.158,5.158,0,0,1-5.326,3.209c-2.47-.151-4.939,0-7.409,0-1.294,0-2.52,0-2.772,1.68.823,3.7,3.461,5.04,6.9,5.04h76.54c3.83,0,6.418-1.814,6.972-5.863C288.4,370.944,285.931,372.069,283.646,371.733Z" transform="translate(136.112 231.517)"/>
      <path id="Path_70" data-name="Path 70" class="cls-4" d="M373.532,352.41c-25.788-2.6-51.559-5.225-77.531-3.276a211.977,211.977,0,0,0-42.521,6.72c1.042,1.058,2.369.638,3.562.638H406.174c1.462,0,3.024.487,4.351-.6C398.194,354.745,385.846,353.653,373.532,352.41Z" transform="translate(172.409 236.946)"/>
      <path id="Path_71" data-name="Path 71" class="cls-4" d="M278.892,355.867c-2.638-.79-5.225-1.68-7.9-2.335-19.79-4.553-39.933-5.494-60.093-5.04-39.312.924-78.439,5.191-117.683,7.392,1.159,1.126,2.621.655,3.948.655h178.2C276.557,356.555,277.9,357.009,278.892,355.867Z" transform="translate(63.434 236.9)"/>
      <path id="Path_72" data-name="Path 72" class="cls-15" d="M176,319.649c1.512-3.444,4.637-3.058,7.543-3.209a125.561,125.561,0,0,1,32.306,5.527c.958,1.478,1.058,2.755-.739,3.662a226.3,226.3,0,0,0-26.981-4.889,66.546,66.546,0,0,0-9.677-.218C177.411,320.539,176.5,320.875,176,319.649Z" transform="translate(119.724 215.175)"/>
      <path id="Path_73" data-name="Path 73" class="cls-16" d="M421.655,333.352c-13.524-2.856-27.132-5.393-40.706-7.946a344.761,344.761,0,0,0-47.124-5.594,161.28,161.28,0,0,0-64.6,10.5,93.8,93.8,0,0,0-18.48,8.719c6.149-2.033,12.146-4.486,18.261-6.552a174.2,174.2,0,0,1,50.131-9.744c18.06-.6,35.868,1.512,53.659,4.368,23.99,3.864,47.812,8.551,71.719,12.869,4.57.823,9.072,2.3,13.843,1.831C446.133,338.946,433.936,335.939,421.655,333.352Z" transform="translate(170.553 217.365)"/>
      <path id="Path_74" data-name="Path 74" class="cls-16" d="M250.7,346.3c42-17.69,85.411-17.858,129.493-10.853C335.926,326.326,292.33,325,250.7,346.3Z" transform="translate(170.519 223.837)"/>
      <path id="Path_75" data-name="Path 75" class="cls-16" d="M259.35,348.257c33.6-10.55,67.8-9.257,102.11-4.771C327.07,337.22,292.849,334.75,259.35,348.257Z" transform="translate(176.401 230.129)"/>
      <path id="Path_76" data-name="Path 76" class="cls-16" d="M233.416,316.181a353.04,353.04,0,0,0-37.447,1.31c-12.029,1.26-23.957,2.99-35.868,5.04-14.347,2.587-28.425,6.434-42.672,9.526-6.72,1.478-13.44,3.444-20.16,5.174a2.89,2.89,0,0,0,2.318.437c23.755-5.678,47.594-10.786,71.8-14.313a334.316,334.316,0,0,1,57.489-3.36l.722-.134c2.285-1.68,5.258-1.68,7.543-3.209A5.7,5.7,0,0,0,233.416,316.181Z" transform="translate(66.188 214.913)"/>
      <path id="Path_77" data-name="Path 77" class="cls-16" d="M215.513,334.413a302.192,302.192,0,0,0-43.075.655c-12.029.84-24.041,2.285-35.969,4.217a225.716,225.716,0,0,0-23.52,4.318c35.129-4.469,70.19-9.374,105.839-6.451C218.739,333.388,217.6,334.564,215.513,334.413Z" transform="translate(76.851 227.073)"/>
      <path id="Path_78" data-name="Path 78" class="cls-16" d="M121.52,348.421a604.16,604.16,0,0,1,91.408-3.444v-2.318C182.336,341.97,151.76,342.642,121.52,348.421Z" transform="translate(82.678 232.854)"/>
      <path id="Path_79" data-name="Path 79" class="cls-16" d="M206.047,329.319c0-.773-.084-1.529-.118-2.3a10.4,10.4,0,0,0-4.418-.571,372.761,372.761,0,0,0-44.772,3.074c-8.669,1.025-17.287,2.486-25.939,3.763C155.832,330.764,180.78,327.4,206.047,329.319Z" transform="translate(88.988 221.952)"/>
      <path id="Path_80" data-name="Path 80" class="cls-16" d="M200.009,319.73a5.477,5.477,0,0,1-.739,3.662,1.541,1.541,0,0,0,.134.773c13.44,3.226,24.679,10.584,34.91,19.673C225.814,331.624,213.8,324.4,200.009,319.73Z" transform="translate(135.547 217.412)"/>
      <path id="Path_81" data-name="Path 81" class="cls-16" d="M198.231,344.786c-4.822-1.109-9.61-2.554-14.633-1.193a2.856,2.856,0,0,0-2.318,1.512l22.646,3.024-3.6-2.923C199.525,345.559,198.937,344.938,198.231,344.786Z" transform="translate(123.314 233.264)"/>
      <path id="Path_82" data-name="Path 82" class="cls-5" d="M467.88,281.264c-7.694,2.268-19.437,5.9-33.6,10.937C386.8,309.152,352.817,321.684,324.358,351a165.141,165.141,0,0,0-25.905,34.961,432.029,432.029,0,0,0-8.568-72.676c-3.125-15.12-5.51-26.527-11.155-41.714a249.8,249.8,0,0,0-32.306-59.136c-7.073-9.777-14.381-19.337-21.84-28.845-1.68-2.2-3.36-3.192-6.233-1.378-12.365,7.93-24.864,15.674-37.329,23.52-9.593,5.981-19.2,11.911-28.812,17.875,6.535,6.014,13.054,12.062,19.4,18.245,9.156,8.921,18.211,17.925,26.88,27.35,6.586,7.207,13.339,14.28,19.74,21.638a584.642,584.642,0,0,1,39.127,49.509c8.736,12.533,17.3,25.2,23.7,39.161a108.711,108.711,0,0,1,9.425,33.869c.1.924-.336,2.453,1.008,2.638h0V440.14l20.16-27.753c1.68.151,2.251-1.562,3.058-2.6q17.673-23.133,37.43-44.52a286.055,286.055,0,0,1,51.34-44.654h0c2.806-2.1,6.014-3.578,8.887-5.578A455.271,455.271,0,0,1,474.1,281.869c.386-.168,1.378-.722,2.755-1.428,4.956-2.52,9.206-4.418,12.365-5.762C484.495,276.09,477.069,278.374,467.88,281.264Z" transform="translate(103.547 123.26)"/>
      <path id="Path_83" data-name="Path 83" class="cls-5" d="M313.717,366.543a27.768,27.768,0,0,0-3.73-6.065c-.571-.487-1.109-.991-1.68-1.5a7.034,7.034,0,0,0-.554-1.193,277.967,277.967,0,0,0-34.524-44.99,316.463,316.463,0,0,0-27.72-26.611c-13.944-11.609-28.476-22.428-43.411-32.709L190.087,245.2a2.033,2.033,0,0,1-.168.806,18.782,18.782,0,0,0-10.349-6.384,6.721,6.721,0,0,1-1.193,1.428c-5.779,3.83-11.273,8.03-16.8,12.163a421.324,421.324,0,0,0-35.145,30.24c-11.39,10.55-21.84,21.974-32.609,33.23a2.218,2.218,0,1,0,1.882,3.982,96.616,96.616,0,0,1,10.819,1.008c14.448,1.025,28.879,2.386,43.293,3.73,16.161,1.5,32.289,3.175,48.4,5.225a455.287,455.287,0,0,1,63.907,12.113c14.549,4.049,28.644,9.038,40.723,18.48a97.919,97.919,0,0,1,7.913,7.476c.874.857,2.016,2.2,3.158,1.445C315.363,369.3,314.255,367.736,313.717,366.543Z" transform="translate(62.814 162.938)"/>
      <path id="Path_84" data-name="Path 84" class="cls-5" d="M342.735,369.414a24.258,24.258,0,0,0-1.982-8.148,15.024,15.024,0,0,1-1.327-2.453c-2.738-12.583-10.08-22.394-19.891-30.509-8.568-7.106-18.816-11.189-29.249-14.818-21.42-7.459-43.6-11.441-65.956-14.549-11.76-1.68-23.52-3.041-35.28-3.965-12.163-.941-24.293-2.318-36.439-3.494h0c-4.754-.151-9.458-1.26-14.246-.857v.084a4.254,4.254,0,0,0-.235-.487c-3.175-1.193-6.535-1.109-9.828-1.579-1.68-.252-3.36-.79-4.922.554a2.923,2.923,0,0,1-.924,1.982c-10.466,10.618-20.16,21.84-30.105,33.045-9.089,10.214-18.312,20.311-26.88,30.979,14.246-1.6,28.325-4.217,42.369-6.989,24.444-4.838,48.72-10.265,73.2-15.254a356.016,356.016,0,0,1,50.736-6.821,204.841,204.841,0,0,1,43.68,2.15c14.482,2.285,28.157,6.636,40.068,15.557,9.979,7.476,18.127,16.38,22.73,28.173.672,1.68,1.949,1.361,3.242.974A3.36,3.36,0,0,0,342.735,369.414Z" transform="translate(44.565 196.053)"/>
      <path id="Path_85" data-name="Path 85" class="cls-5" d="M304.554,405.886c-.252-1.092-.588-2.167-.84-3.259a101.4,101.4,0,0,0-8.4-41.244c-8.4-19.639-21.084-36.523-33.6-53.491-10.265-13.826-20.983-27.317-32.357-40.32-9.962-11.357-19.941-22.713-30.845-33.213h0a145.717,145.717,0,0,0-11.76-11.642l.151-.3c-2.772-4.637-7.073-7.661-11.357-10.685,0,0-.218.084-.336.134a4.855,4.855,0,0,1-2.083,2.066c-14.918,8.064-28.56,17.942-42.269,27.938a12.751,12.751,0,0,0,4.351,3.494c25.872,16.447,51.508,33.23,75.9,51.861a292.867,292.867,0,0,1,43.68,41.109,268.8,268.8,0,0,1,34.524,49.005c5.813,10.836,10.954,21.957,11.441,34.608,0,1.277,0,2.94,2,2.94,1.411-.773,1.344-2.234,1.68-3.545A60.48,60.48,0,0,0,304.554,405.886Z" transform="translate(89.029 143.974)"/>
      <path id="Path_86" data-name="Path 86" class="cls-17" d="M494.544,355.6c-11.508-16.985-23.217-33.835-34.339-51.055a20.479,20.479,0,0,0-13.44-9.29c-14.851-3.679-29.786-6.72-44.906-9.055a228.132,228.132,0,0,0-26.208-3.36c-12.432-.487-24.931-.857-37.346,1.243a123.767,123.767,0,0,0-37.867,12.146c-.958.5-6.418,4.4-6.636,4.469-.89.857-1.882,1.68-2.688,2.587-6.854,8.114-13.843,16.111-20.479,24.41-8.182,10.214-16.212,20.58-23.369,31.567h0a121.788,121.788,0,0,0-12.617,18.766,1.142,1.142,0,0,0,1.529.286,43.808,43.808,0,0,1,3.242-4.5,102.628,102.628,0,0,1,32.625-23.839c17.774-8.2,36.506-11.945,55.86-13.238a72.091,72.091,0,0,1,15.809,0c7.862,0,15.641.907,23.52,1.394,15.809.974,31.181,4.62,46.72,7.157,7.476,1.21,14.717,3.679,22.31,4.267h0c3.158,1.26,6.552,1.31,9.828,1.932,16.682,3.158,33.449,5.88,50.4,7.728a9.089,9.089,0,0,0-1.949-3.612Z" transform="translate(159.605 192.073)"/>
      <path id="Path_87" data-name="Path 87" class="cls-18" d="M199.393,347.006c-4.334.924-8.4-1.142-12.684-1.142a33.226,33.226,0,0,1-4.049-.47c1.882-2.066,4.6-2.89,6.72-4.553,1.378-1.058,2.318,0,3.259.806C194.991,343.41,197.158,345.225,199.393,347.006Z" transform="translate(124.253 231.464)"/>
      <path id="Path_88" data-name="Path 88" class="cls-19" d="M157.167,229.69c60.58,33.4,177.894,123.16,168.133,183.64-4.133-4.922-3.175-18.917-9.744-26.88C281.486,328.389,130.64,337.612,92,327.516c74.877,2.335,193.988,12.785,222.078,49.291C273.439,301.19,208.188,270.732,157.167,229.69Z" transform="translate(62.605 156.186)"/>
      <path id="Path_89" data-name="Path 89" class="cls-13" d="M311.522,395.075c26.225-33.432,54.751-68.762,91.795-91.744C330.892,353.21,280.156,458.663,288.64,422.61c7.678-83.025-93.458-169.007-130.468-209.293-2.47-1.31-9.946-10.6-2.251-4.855,67.2,65.066,142.715,143.874,136.281,208.789C289.531,429.818,304.634,397.948,311.522,395.075Z" transform="translate(103.767 140.488)"/>
      <path id="Path_90" data-name="Path 90" class="cls-17" d="M332.933,105.468a11.76,11.76,0,0,1,5.645-7.14q30.593-17.186,61.1-34.524c2.1-1.21,3.242-1.025,4.267,1.025a15.457,15.457,0,0,1,4.133,5.225q24.041,42.739,48.2,85.411c1.092,1.932,2.554,3.78,2.251,6.25-.622,2.016-2.453,2.755-4.066,3.662-18.48,10.567-36.96,20.916-55.574,31.349-4.267,2.419-8.249,4.788-8.954,10.214a1.68,1.68,0,0,1-.941,1.109c-2.386-.4-2.89-2.57-3.83-4.234-10.718-18.614-21.1-37.43-31.769-56.061q-8.837-15.439-17.506-31a27.063,27.063,0,0,1-3.091-6.72,5.191,5.191,0,0,1,.134-4.57Z" transform="translate(226.029 42.874)"/>
      <path id="Path_91" data-name="Path 91" class="cls-17" d="M347.009,92.818a18.766,18.766,0,0,1,5.662-3.158,3.36,3.36,0,0,1,1.68,1.865c10.433,19.135,21.386,37.968,32.021,56.985,6.72,11.911,13.608,23.671,20.16,35.666.974,1.8,1.9,3.578,1.025,5.7a8.148,8.148,0,0,1-3.662,3.108c-18.312,10.382-36.674,20.647-55.036,30.945-1.882,1.058-3.746,2.738-6.25,1.462-2.906-2.7-4.284-6.418-6.182-9.761q-22.9-40.538-45.763-81.11a11.239,11.239,0,0,1-2.134-5.914c-.269-1.159-1.68-2.167.42-3.36,16.363-9.038,32.642-18.194,48.955-27.317,1.26.218,1.848,1.21,2.386,2.184q5.393,9.374,10.7,18.782a5.6,5.6,0,0,1,.991,3.881c-.722,1.8-2.419,2.453-3.931,3.36-11.172,6.434-22.445,12.684-33.6,19.169,10.97-5.981,21.84-12.18,32.693-18.329,1.814-1.025,3.528-2.47,5.813-2.386A5.393,5.393,0,0,1,355.93,130c-2.1,3.36-5.813,4.6-9.022,6.35-9.526,5.208-18.816,10.836-28.341,16.061Q333.5,144.276,348.3,135.86c2.789-1.68,5.41-3.6,8.686-4.2a5.342,5.342,0,0,1,3.058,5.359c-.941,2.3-3.142,3.142-5.04,4.234q-15.321,8.77-30.761,17.337a2.873,2.873,0,0,0-1.294,1.109c10.9-6.1,21.5-12.247,32.273-18.161,1.932-1.058,3.7-2.671,6.182-2.352a5.9,5.9,0,0,1,2.856,5.443c-1.445,2.4-4.032,3.36-6.266,4.536-9.509,5.275-18.849,10.786-28.425,15.91a8.4,8.4,0,0,0-2.856,2.066c11.525-6.434,22.344-12.835,33.415-18.782,1.68-.874,3.142-2.117,5.158-2.033a5.208,5.208,0,0,1,2.923,5.376c-1.142,2.318-3.478,3.142-5.51,4.3-10.6,6.048-21.269,12-31.836,18.144,11.441-6.149,22.646-12.7,33.969-19.034,1.411-.79,2.688-1.882,4.486-1.68a5.561,5.561,0,0,1,3.074,5.342c-.6,1.68-2.1,2.4-3.494,3.209-11.34,6.552-22.9,12.751-34.171,19.438,10.517-5.51,20.6-11.474,30.9-17.27,2.47-1.378,4.7-3.36,7.8-3.36,1.68,1.411,3.982,2.218,5.04,4.435a5.544,5.544,0,0,1-2.99,2.671c-12,6.72-23.99,13.44-35.868,20.311,14.431-7.946,28.694-16.2,43.226-23.957a6.384,6.384,0,0,1,3.36-.084c-4.906-8-9.358-16.262-13.961-24.427q-11.76-20.882-23.52-41.748C347.664,96.43,346.387,94.885,347.009,92.818Z" transform="translate(195.757 60.967)"/>
      <path id="Path_92" data-name="Path 92" class="cls-8" d="M289.454,146.527l35.28,62.16q9.61,16.951,19.152,33.936c1.68,2.436,3.713,1.277,5.594.269,6.418-3.36,12.667-7.09,19-10.651q17.64-9.929,35.28-19.941a15.12,15.12,0,0,1,11.861-1.848,7.762,7.762,0,0,0,9.021-5.376,12.331,12.331,0,0,1,6.518-8.215c17.959-10.2,35.985-20.16,53.911-30.509,1.982-1.142,4.553-1.9,4.25-5.04q-21.84-38.64-43.545-77.4c-3.6-6.4-7.106-12.869-10.651-19.3,3.125-2.318,5.04-1.5,6.922,1.915q26.258,47.04,52.785,93.911c2.285,4.049,2.15,4.536-2.05,6.9Q465,182.983,437.159,198.557c-2.789,1.546-4.4,3.007-3.763,6.619a7.577,7.577,0,0,1-4.15,8.182c-3.259,1.831-6.451,3.83-9.777,5.544a8.7,8.7,0,0,1-10.08-1.848c-1.428-1.848-2.419-1.478-4-.571q-16.8,9.576-33.6,19.051c-8.165,4.6-16.464,9-24.545,13.776-3.36,1.966-4.939,1.327-6.72-1.932-6.72-12.18-13.625-24.209-20.462-36.3-10.718-18.95-21.336-37.951-32.189-56.8C285.842,150.828,285.758,148.476,289.454,146.527Z" transform="translate(194.848 43.042)"/>
      <path id="Path_93" data-name="Path 93" class="cls-20" d="M380.616,190.093a5.746,5.746,0,0,0-.991-4.234c-8.786-15.792-17.976-31.365-26.611-47.258-7.56-13.91-15.725-27.5-23.52-41.244A26.979,26.979,0,0,1,326.47,90.1c2.318-1.68,4.822-1.042,7.308-.521,2.033-.89,2.638,1.042,3.78,1.915,4.637,9.24,9.929,18.11,14.969,27.132,5.46,9.778,11.071,19.488,16.481,29.3,7.14,12.953,14.532,25.771,21.84,38.64.739,1.294,1.546,2.554,2.318,3.814.487,1.394-.722,1.109-1.126.89a14.162,14.162,0,0,0-10.349-.756,1.176,1.176,0,0,1-1.075-.42Z" transform="translate(222.042 60.528)"/>
      <path id="Path_94" data-name="Path 94" class="cls-8" d="M334.53,91.945c-1.68.286-2.419-1.478-3.78-1.915.672-1.294,2.117-1.21,3.226-1.68Z" transform="translate(224.952 60.077)"/>
      <path id="Path_95" data-name="Path 95" class="cls-20" d="M384.574,167.886c4.133-2.1,8.182-2.335,12.029.689a.319.319,0,0,0,.3,0,.467.467,0,0,1,.118-.353c-.269-5.242,2.218-8.5,6.72-11.021,19.925-11.054,39.715-22.344,59.539-33.6.974-.554,1.831-1.294,2.738-1.932,2.4,2.554.722,3.713-1.529,5.04-18.933,10.634-37.817,21.353-56.8,31.987a9.509,9.509,0,0,0-5.174,7.325c-.588,3.83-6.838,7.426-10.382,6.014a10.366,10.366,0,0,0-9.358.722c-18.833,10.651-37.749,21.151-56.5,31.92-3.091,1.781-4.6,1.68-5.628-1.68,1.21.958,2.15,0,3.041-.538q30.021-16.884,60.009-33.835a6.973,6.973,0,0,0,.874-.739Z" transform="translate(218.084 82.734)"/>
      <path id="Path_96" data-name="Path 96" class="cls-20" d="M335.284,101.75c.823,1.26,2.234,2.537-.37,3.982-11.491,6.35-22.932,12.8-34.373,19.253-1.462.823-2.386.907-3.36-.756s-.134-2.537,1.176-3.36q16.985-9.626,33.969-19.2C333.184,101.279,334.124,100.708,335.284,101.75Z" transform="translate(201.838 68.786)"/>
      <path id="Path_97" data-name="Path 97" class="cls-20" d="M374.331,139.951c1.126,1.9-.386,2.352-1.562,3.024l-20.16,11.474q-13.877,7.846-27.787,15.59c-.907.487-2.083,2.167-3.108.286s1.008-2.083,1.882-2.587q23.621-13.44,47.325-26.729a4.452,4.452,0,0,1,3.41-1.058Z" transform="translate(218.616 95.146)"/>
      <path id="Path_98" data-name="Path 98" class="cls-20" d="M319.4,164.587c4.15-2.419,8-4.721,11.911-6.922q18.917-10.6,37.917-21.151c.874-.5,1.814-1.848,2.806-.3s-.554,1.949-1.411,2.436q-21.168,12-42.369,23.94c-2.285,1.277-4.57,2.57-6.871,3.814-.622.336-1.378.823-1.982,0a1.26,1.26,0,0,1,0-1.814Z" transform="translate(216.969 92.132)"/>
      <path id="Path_99" data-name="Path 99" class="cls-20" d="M376.729,144.476c1.176,2.083-.655,2.4-1.68,3.007-6.3,3.6-12.633,7.123-18.967,10.685q-14.246,7.98-28.476,15.96c-1.008.554-2.318,2.033-3.226.571-1.058-1.68.974-2.251,2.05-2.873q23.688-13.44,47.426-26.678C374.645,144.694,375.519,143.417,376.729,144.476Z" transform="translate(220.419 97.963)"/>
      <path id="Path_100" data-name="Path 100" class="cls-20" d="M358.623,134.484a9.072,9.072,0,0,1,4.687.286q-21.706,12.264-43.394,24.561c-.89.487-2.15,1.68-2.94.252s.806-2.016,1.831-2.6Z" transform="translate(215.442 91.323)"/>
      <path id="Path_101" data-name="Path 101" class="cls-20" d="M353.99,130.81l1.562,2.52L319.87,153.238c-.974.538-1.982,1.058-2.974,1.579s-1.68,1.478-2.52.084.353-1.68,1.193-2.2c5.04-2.89,10.231-5.762,15.338-8.686Q342.5,137.446,353.99,130.81Z" transform="translate(213.623 88.949)"/>
      <path id="Path_102" data-name="Path 102" class="cls-20" d="M341.933,109.41l1.26,2.2-38.085,21.638c-.924.521-1.882,1.68-2.789.118s.487-1.9,1.445-2.436Z" transform="translate(205.419 74.397)"/>
      <path id="Path_103" data-name="Path 103" class="cls-20" d="M349.142,122.34c.437.722.874,1.445,1.327,2.167l-37.884,21.369c-.958.554-2.117,1.5-2.923.151s.706-1.865,1.6-2.352Q330.175,132.974,349.142,122.34Z" transform="translate(210.457 83.189)"/>
      <path id="Path_104" data-name="Path 104" class="cls-20" d="M344.312,113.63l1.21,2.218-30.492,17.505c-2.486,1.428-5.04,2.772-7.543,4.133-.89.47-1.882,1.781-2.806.185s.722-1.949,1.546-2.436c7.694-4.4,15.422-8.719,23.133-13.087C334.349,119.292,339.322,116.469,344.312,113.63Z" transform="translate(207.039 77.267)"/>
      <path id="Path_105" data-name="Path 105" class="cls-20" d="M346.5,117.87l1.546,2.554Q329.3,130.94,310.517,141.407c-1.008.554-2.268,1.966-3.192.454s.84-2.05,1.865-2.621q17.875-10.2,35.75-20.345C345.477,118.592,345.982,118.206,346.5,117.87Z" transform="translate(208.847 80.15)"/>
      <path id="Path_106" data-name="Path 106" class="cls-20" d="M351.587,126.58l1.277,2.15-38.371,21.84c-.84.47-1.764,1.394-2.486,0-.958-1.848.941-2.117,1.814-2.621,10.618-6.082,21.285-12.062,31.92-18.077C347.706,128.831,349.638,127.689,351.587,126.58Z" transform="translate(212.028 86.073)"/>
      <path id="Path_107" data-name="Path 107" class="cls-20" d="M300.031,126.921c1.378-.84,2.755-1.68,4.166-2.5,10.214-5.746,20.412-11.508,30.677-17.169.857-.47,2.083-2.285,3.058-.454.756,1.411-.773,2.134-1.848,2.755q-16.8,9.425-33.6,18.816c-.706.4-1.546,1.68-2.57.437C299.393,128.214,299.124,127.475,300.031,126.921Z" transform="translate(203.659 72.074)"/>
      <path id="Path_108" data-name="Path 108" class="cls-7" d="M326.729,91.54,367.4,163.477a11.575,11.575,0,0,1-14.011-2.89q-6.4-9.979-12.751-20.781c-8.7-14.834-16.313-29.282-23-43.125a50.99,50.99,0,0,1,9.089-5.141Z" transform="translate(216.038 62.246)"/>
      <path id="Path_109" data-name="Path 109" class="cls-8" d="M510.8,209.572q-21.554-17.623-43.041-35.28h0c-7.157-6.216-14.431-12.264-22.092-17.875-2.4-1.092-3.041,1.176-3.982,2.352q-14.733,18.48-29.349,36.96c-14.078,17.757-27.921,35.784-42.2,53.34-1.378,1.68-2.99,3.36-2.772,5.863a3.865,3.865,0,0,0,1.058,1.915q8.971,7.879,18.48,15.12a3.175,3.175,0,0,0,2.772.739,8.232,8.232,0,0,0,3.494,4.62q20.714,16.8,41.563,33.6c1.142.907,2.2,2.066,3.9,1.68q36.489-48.72,73-97.339C513.349,212.865,512.929,211.353,510.8,209.572Zm-49.946,52.7c-4.183,5.208-7.98,10.735-11.878,16.161-3.36,4.754-3.864,4.838-8.4,1.277-9.19-7.308-18.278-14.733-27.417-22.092-2.15-1.68-4.15-3.713-6.922-4.469,0-1.546-1.579-2.3-2.587-3.242-3.041-2.839-6.418-5.258-9.609-7.913-2.436-2.016-2.789-3.83-.622-6.3,3.612-4.116,6.72-8.652,10.214-12.869,6.871-8.4,6.821-8.282,15.355-1.428,2.117,1.68,3.83,4.4,7.09,4.15.2,2.5,2.268,3.7,3.965,5.04,9.929,8.047,19.74,16.229,29.685,24.259C462.647,257.2,463.285,259.182,460.849,262.273Z" transform="translate(249.832 106.165)"/>
      <path id="Path_110" data-name="Path 110" class="cls-4" d="M448.77,156.747c-.622-.622-1.21-1.294-1.9-1.865-8.131-6.72-11.878-6.3-18.379,1.932l-26.443,33.6q-22.982,29.181-45.914,58.4a1.294,1.294,0,0,0,1.243,1.478c4.435,0,7.913,2.47,11.76,4.116a4.572,4.572,0,0,0,.84,0c1.68,1.68,3.914,2.755,5.527,4.519q13.81-17.64,27.653-35.28,10.685-13.608,21.42-27.149,14.314-18.077,28.778-36.069A13.44,13.44,0,0,0,448.77,156.747Z" transform="translate(242.205 102.139)"/>
      <path id="Path_111" data-name="Path 111" class="cls-17" d="M365.255,212.9a4.066,4.066,0,0,0-6.149.269,7.274,7.274,0,0,0-1.142.235c-6.283,4.133-6.72,8.77-1.21,13.591,4.351,3.83,9.022,7.274,13.44,10.92q28.829,23.52,57.724,46.905c1.882,1.512,3.612,3.713,6.569,3.041,2.117-2.772,4.217-5.561,6.334-8.4l2.554-2.99Q404.365,244.7,365.255,212.9Z" transform="translate(240.024 143.899)"/>
      <path id="Path_112" data-name="Path 112" class="cls-7" d="M397.156,230.9c-4.855-4.049-9.66-8.165-14.616-12.113-2.134-1.68-2.638-3.209-.79-5.494,5.594-6.871,11.172-13.759,16.548-20.8,2.167-2.839,3.864-2.822,6.451-.538,4.082,3.612,8.4,6.888,12.734,10.315,12.1,10,24.091,20.16,36.355,29.9,2.587,2.066,2.4,3.36.689,5.662-5.342,7.106-10.718,14.2-15.792,21.5-1.966,2.839-3.226,2.268-5.494.437C421.281,250.072,409.2,240.513,397.156,230.9Z" transform="translate(258.858 129.404)"/>
      <path id="Path_113" data-name="Path 113" class="cls-8" d="M379.565,250.48c-7.106-7.022-29.165-20.328-28.56-28.039,1.6-7.812,8.753-17.3,17.657-11.861,12.9,8.249,22.663,18.866,35.5,28.56,14.414,14.045,34.255,24.259,44.822,38.64-6.72,5.309-22.209-14.532-27.5-16.8-17.1-13.759-33.348-27-50.4-40.807-3.091-2.218-5.729-6.283-10.08-4.754-13.608,8.114,2.318,14.6,8.837,20.949,22.445,19.521,46.939,35.582,67.2,55.927C437.978,302.611,378.54,251.656,379.565,250.48Z" transform="translate(238.717 142.099)"/>
      <path id="Path_114" data-name="Path 114" class="cls-7" d="M197.937,115.919l8.618,15.456a4.5,4.5,0,0,1,.655,3.36c-.89,5.04,1.478,8.114,5.242,11.138,5.141,4.116,10.08,5.04,15.657,1.226,8.3-.622,16.161,1.966,24.158,3.36,23.772,4.3,47.56,8.551,71.316,12.919q19.841,3.629,39.681,7.19a11.659,11.659,0,0,1,5.258,1.68c2.167.47,4.318,1.042,6.5,1.378s3.83,1.193,3.36,3.562-2.4,2.05-4.2,1.68l-32.777-5.846q-52.752-9.19-105.436-18.631a11.306,11.306,0,0,0-8.316.941c-10.634,6.166-29.988-7.61-27.669-19.74a8.4,8.4,0,0,0-2.016-8.014,19.1,19.1,0,0,1-7.644-14.33q-30.24-53.877-60.48-107.771c-.941-1.68-2.1-3.629,0-4.956,2.4-1.478,3.629.47,4.67,2.386s2.419,4.1,3.629,6.132a9.525,9.525,0,0,1,4.1,4.4c15.809,28.425,31.92,56.649,47.544,85.175,1.5,4.032,4.334,7.308,6.2,11.138C196.963,111.7,198.24,113.567,197.937,115.919Z" transform="translate(87.539 0)"/>
      <path id="Path_115" data-name="Path 115" class="cls-8" d="M173.958,67.41,181.6,81.74c-5.41,7.577-10.8,15.12-16.464,23.117-2.117-3.007-.134-7.224-2.688-8.3s-5.561.269-9.71.655Z" transform="translate(103.907 45.838)"/>
      <path id="Path_116" data-name="Path 116" class="cls-5" d="M153.388,11.441a5.326,5.326,0,0,0-3.142-2.419c-5.326-1.142-10.618-2.4-15.926-3.612Q159.738,50.9,185.156,96.381c6.838.454,11.76-2.94,16.161-7.711C188.483,60.934,171.834,35.6,153.388,11.441Z" transform="translate(91.382 3.678)"/>
      <path id="Path_117" data-name="Path 117" class="cls-5" d="M347.506,169.394h0c-3.478-7.913-8.518-13.306-17.892-14.633-8.736-1.26-17.2-4.284-25.838-6.334-27.417-6.535-54.835-13.154-83.059-15.254-1.126,0-2.5.521-3.914-1.075a161.969,161.969,0,0,1,37.817,2.2,606.7,606.7,0,0,1,81.244,19.051c1.411.42,3.494,2.033,4.318-.554.6-1.932-1.5-1.865-2.7-2.218-33.785-9.929-67.754-18.984-103.034-21.84-.924-.084-2.4.638-2.839-1.344,1.68-.185,3.125-.42,4.637-.554,23.52-2.016,46.771.319,69.972,3.578,10.315,1.462,20.546,3.461,30.828,5.158,1.193.2,2.923,1.126,3.242-1.075.269-1.68-1.378-1.68-2.419-1.982a9.223,9.223,0,0,0-1.512-.286c-27.72-5.342-55.574-9.475-83.9-9.324-6.2,0-12.382.37-18.48.571a7.677,7.677,0,0,1,3.7-1.68c19.74-3.8,39.7-4.67,59.724-4.385,12.466.185,24.914.991,37.38,1.445,1.142,0,2.974,1.058,3.36-1.109.42-2.722-1.865-1.848-3.142-2-2.873-.336-5.779-.521-8.669-.672-30.9-1.579-61.706-2.117-92.047,4.1-5.712,1.159-11.29,2.974-18.06,4.8a251.767,251.767,0,0,1,28.98-20.311,564.684,564.684,0,0,1,70.442-35.414c1.394-.6,4.049-.789,2.973-3.192-.907-2.083-2.688-.353-3.948.151C300.9,70.829,287.429,77.18,274.174,83.9c-22.881,11.592-45.091,24.343-65,42,2.083-6.72,4.234-12.449,5.662-18.379,7.778-32.441,8-65.352,6.1-98.38-.118-2.05-.3-4.082-.47-6.132,0-.84-.118-1.831-1.277-1.814s-1.982.571-1.915,1.865c0,1.025.151,2.05.218,3.074,1.68,27,1.68,53.961-2.083,80.807-.42,3.041-.974,6.065-1.529,9.089s-1.109,5.611-1.68,8.4c1.378-33.6-2.05-66.7-7.409-99.64-.269-1.68.672-5.04-2.4-4.6-2.688.4-.84,3.158-.638,4.738,1.378,11.357,3.226,22.663,4.368,34.053,2.57,25.351,4.5,50.752.42,76.137-.571,3.528-.941,7.174-3.226,10.685-1.68-7.342-2.974-14.23-4.822-20.949C189.3,71.468,175.576,39.8,161.245,8.384c-.655-1.411-.689-4.67-3.259-3.511s0,3.259.437,4.855a46.669,46.669,0,0,0,2.3,5.141c11.844,26.359,23.049,52.953,31.685,80.639,2.251,7.19,4.435,14.448,4.738,22.193q-2.117-5.04-4.267-10.08c-6.014.857-11.323,2.906-14.515,8.534a34.743,34.743,0,0,0,8.7,16.4c6.922,3.662,14.045,7.039,19.589,12.8a9.08,9.08,0,0,0,.823.386c0,1.142,1.226,1.68,2.251,2.268q38.808,6.854,77.632,13.692,31,5.41,61.992,10.769C348.749,171.343,348.127,170.369,347.506,169.394Z" transform="translate(106.708 0.099)"/>
      <path id="Path_118" data-name="Path 118" class="cls-8" d="M164.58,62.651a144.065,144.065,0,0,0,16.178-7.711,52.869,52.869,0,0,1,6.871,15.221c-4.654,2.873-9.9,4.754-14.112,8.4a150.869,150.869,0,0,1-8.938-15.909Z" transform="translate(111.958 37.358)"/>
      <path id="Path_119" data-name="Path 119" class="cls-8" d="M196,91.277c.622,1.176,1.243,2.369,1.882,3.545-5.275,4.334-9.509,4.687-14.666,1.21-9.139-6.166-10.366-9-7.678-17.791A46.469,46.469,0,0,1,196,91.277Z" transform="translate(118.557 53.202)"/>
    </g>
  </g>
</svg>
